<svg width="40" height="31" viewBox="0 0 40 31" fill="none" xmlns="http://www.w3.org/2000/svg">
<path fill-rule="evenodd" clip-rule="evenodd" d="M4.27599 7.63621C2.36266 7.63621 0.814453 6.08397 0.814453 4.17366C0.814453 2.26235 2.36266 0.713135 4.27599 0.713135C6.18831 0.713135 7.73753 2.26235 7.73753 4.17366C7.73753 6.08397 6.18831 7.63621 4.27599 7.63621Z" fill="#00C4FF"/>
<mask id="mask0" mask-type="alpha" maskUnits="userSpaceOnUse" x="4" y="0" width="36" height="31">
<path fill-rule="evenodd" clip-rule="evenodd" d="M4.04102 0.903076H39.1854V30.7132H4.04102V0.903076Z" fill="white"/>
</mask>
<g mask="url(#mask0)">
<path fill-rule="evenodd" clip-rule="evenodd" d="M12.5502 18.1041L14.9871 10.1052C15.6633 7.9174 17.6983 6.32589 20.0962 6.32589C22.4899 6.32589 24.5164 7.90467 25.2043 10.0829L27.6781 18.0691L32.1142 3.43889C32.5804 1.96727 33.9466 0.903076 35.5628 0.903076C37.5608 0.903076 39.1855 2.53385 39.1855 4.54446C39.1855 4.85215 39.1454 5.15347 39.0715 5.44207L32.495 27.0601C31.8905 29.1694 29.9589 30.7132 27.6676 30.7132C25.3804 30.7132 23.452 29.1758 22.8433 27.0697L20.1078 18.1041L17.365 27.1025C16.7457 29.1917 14.8257 30.7132 12.5502 30.7132C10.2494 30.7132 8.3051 29.1567 7.71117 27.0304L4.20242 15.4951C4.09587 15.1556 4.04102 14.7938 4.04102 14.414C4.04102 12.4023 5.66036 10.7736 7.65948 10.7736C9.2957 10.7736 10.6766 11.8643 11.125 13.3625L12.5502 18.1041Z" fill="#00C4FF"/>
</g>
</svg>
