<?xml version="1.0" encoding="UTF-8"?>
<svg xmlns="http://www.w3.org/2000/svg" xmlns:xlink="http://www.w3.org/1999/xlink" viewBox="0 0 48 48" version="1.1" width="96px" height="96px">
<g id="surface1">
<path style=" fill:#455A64;" d="M 44 13 L 42.398438 13 C 41.800781 13 41 13.898438 41 14.398438 L 41 33.699219 C 41 34.199219 41.800781 35 42.398438 35 L 44 35 L 44 40 L 30 40 L 30 35 L 33 35 L 33 14.101563 L 26 40 L 20 40 L 13 14.101563 L 13 35 L 16 35 L 16 40 L 4 40 L 4 35 L 5.5 35 C 6.199219 35 7 34.300781 7 33.699219 L 7 14.398438 C 7 13.898438 6.199219 13 5.5 13 L 4 13 L 4 8 L 19 8 L 24 27 L 24.101563 27 L 29 8 L 44 8 Z "/>
</g>
</svg>
